HIERARCHY
ROOT Hips
{
	OFFSET 0.00000 0.00000 0.00000
	CHANNELS 6 Xposition Yposition Zposition Zrotation Yrotation Xrotation 
	JOINT LHipJoint
	{
		OFFSET 0 0 0
		CHANNELS 3 Zrotation Yrotation Xrotation
		JOINT LeftUpLeg
		{
			OFFSET 1.40001 -1.72600 0.84541
			CHANNELS 3 Zrotation Yrotation Xrotation
			JOINT LeftLeg
			{
				OFFSET 2.34760 -6.44999 0.00000
				CHANNELS 3 Zrotation Yrotation Xrotation
				JOINT LeftFoot
				{
					OFFSET 2.50650 -6.88655 0.00000
					CHANNELS 3 Zrotation Yrotation Xrotation
					JOINT LeftToeBase
					{
						OFFSET 0.12464 -0.34243 1.95563
						CHANNELS 3 Zrotation Yrotation Xrotation
						End Site
						{
							OFFSET 0.00000 -0.00000 1.00479
						}
					}
				}
			}
		}
	}
	JOINT RHipJoint
	{
		OFFSET 0 0 0
		CHANNELS 3 Zrotation Yrotation Xrotation
		JOINT RightUpLeg
		{
			OFFSET -1.40958 -1.72600 0.84541
			CHANNELS 3 Zrotation Yrotation Xrotation
			JOINT RightLeg
			{
				OFFSET -2.37905 -6.53640 0.00000
				CHANNELS 3 Zrotation Yrotation Xrotation
				JOINT RightFoot
				{
					OFFSET -2.50470 -6.88163 0.00000
					CHANNELS 3 Zrotation Yrotation Xrotation
					JOINT RightToeBase
					{
						OFFSET -0.12236 -0.33619 1.81785
						CHANNELS 3 Zrotation Yrotation Xrotation
						End Site
						{
							OFFSET -0.00000 -0.00000 0.93746
						}
					}
				}
			}
		}
	}
	JOINT LowerBack
	{
		OFFSET 0 0 0
		CHANNELS 3 Zrotation Yrotation Xrotation
		JOINT Spine
		{
			OFFSET -0.02146 1.96915 0.26424
			CHANNELS 3 Zrotation Yrotation Xrotation
			JOINT Spine1
			{
				OFFSET 0.01522 1.99484 0.02086
				CHANNELS 3 Zrotation Yrotation Xrotation
				JOINT Neck
				{
					OFFSET 0 0 0
					CHANNELS 3 Zrotation Yrotation Xrotation
					JOINT Neck1
					{
						OFFSET -0.02954 1.71757 0.03505
						CHANNELS 3 Zrotation Yrotation Xrotation
						JOINT Head
						{
							OFFSET 0.04170 1.65781 -0.11024
							CHANNELS 3 Zrotation Yrotation Xrotation
							End Site
							{
								OFFSET 0.01600 1.81465 -0.05144
							}
						}
					}
				}
				JOINT LeftShoulder
				{
					OFFSET 0 0 0
					CHANNELS 3 Zrotation Yrotation Xrotation
					JOINT LeftArm
					{
						OFFSET 2.77679 1.60868 -0.78649
						CHANNELS 3 Zrotation Yrotation Xrotation
						JOINT LeftForeArm
						{
							OFFSET 4.62672 -0.00000 -0.00000
							CHANNELS 3 Zrotation Yrotation Xrotation
							JOINT LeftHand
							{
								OFFSET 3.11018 -0.00000 -0.00000
								CHANNELS 3 Zrotation Yrotation Xrotation
								JOINT LeftFingerBase
								{
									OFFSET 0 0 0
									CHANNELS 3 Zrotation Yrotation Xrotation
									JOINT LeftHandIndex1
									{
										OFFSET 0.74383 -0.00000 -0.00000
										CHANNELS 3 Zrotation Yrotation Xrotation
										End Site
										{
											OFFSET 0.59970 -0.00000 -0.00000
										}
									}
								}
								JOINT LThumb
								{
									OFFSET 0 0 0
									CHANNELS 3 Zrotation Yrotation Xrotation
									End Site
									{
										OFFSET 0.60885 -0.00000 0.60885
									}
								}
							}
						}
					}
				}
				JOINT RightShoulder
				{
					OFFSET 0 0 0
					CHANNELS 3 Zrotation Yrotation Xrotation
					JOINT RightArm
					{
						OFFSET -2.73247 1.63658 -0.74740
						CHANNELS 3 Zrotation Yrotation Xrotation
						JOINT RightForeArm
						{
							OFFSET -4.55919 -0.00000 -0.00000
							CHANNELS 3 Zrotation Yrotation Xrotation
							JOINT RightHand
							{
								OFFSET -3.22748 -0.00000 -0.00000
								CHANNELS 3 Zrotation Yrotation Xrotation
								JOINT RightFingerBase
								{
									OFFSET 0 0 0
									CHANNELS 3 Zrotation Yrotation Xrotation
									JOINT RightHandIndex1
									{
										OFFSET -0.70088 -0.00000 -0.00000
										CHANNELS 3 Zrotation Yrotation Xrotation
										End Site
										{
											OFFSET -0.56507 -0.00000 -0.00000
										}
									}
								}
								JOINT RThumb
								{
									OFFSET 0 0 0
									CHANNELS 3 Zrotation Yrotation Xrotation
									End Site
									{
										OFFSET -0.57370 -0.00000 0.57370
									}
								}
							}
						}
					}
				}
			}
		}
	}
}
MOTION
Frames: 15
Frame Time: .0083333
0.2640 16.5843 0.8618 -0.3760 5.4922 18.1140 0.0000 0.0000 0.0000 -14.8481 -10.8019 -36.8415 13.7973 19.0514 71.5846 0.0247 0.6266 -3.2707 0.2007 -2.8848 -7.9583 0.0000 0.0000 0.0000 22.9538 7.2650 -31.7492 -3.3684 -11.2688 33.1919 -0.9628 11.0332 -18.0225 -0.1799 2.7318 -7.5329 1.6485 -0.8556 -14.8822 3.0841 -1.4410 -6.0375 2.0621 -0.7012 1.9980 -0.6651 -0.7812 -5.7552 -3.8051 -0.5484 11.0239 -1.2096 -0.4954 4.6928 -0.0000 0.0000 0.0000 -90.3616 5.8966 25.4460 16.4713 -26.1555 -3.8514 -0.0000 0.0000 -5.4908 22.3525 -16.4160 -6.6285 -7.1250 0.0000 -0.0000 -3.6116 12.3368 2.7622 -0.0000 0.0000 0.0000 90.4949 -7.1019 -7.3718 -9.7393 16.3307 -1.4007 0.0000 0.0000 9.9702 -21.5092 -34.5645 12.6031 7.1250 -0.0000 -0.0000 15.1558 -65.9050 -7.7262
0.2585 16.5879 1.0683 -0.2134 5.6388 18.0679 0.0000 0.0000 0.0000 -14.9268 -11.2260 -38.1597 13.5815 18.9822 70.9224 0.0361 0.7879 -3.9695 0.1357 -2.3741 -6.5407 0.0000 0.0000 0.0000 23.0903 6.5314 -30.9590 -3.3450 -11.2336 33.0717 -1.0044 11.2409 -18.4064 -0.2087 2.9412 -8.1152 1.4830 -0.8406 -14.8653 2.9423 -1.3930 -6.0279 2.0147 -0.6764 1.9986 -0.5662 -0.8557 -5.7283 -3.7448 -0.6649 11.0696 -1.2138 -0.5457 4.7014 -0.0000 0.0000 0.0000 -90.4672 6.5487 25.0073 15.5076 -24.8485 -3.4364 -0.0000 0.0000 -4.7352 22.4952 -16.9186 -6.8717 -7.1250 0.0000 -0.0000 -3.5508 11.7837 2.7563 -0.0000 0.0000 0.0000 90.4455 -6.4040 -2.3064 -10.7377 17.8850 -1.6945 0.0000 0.0000 5.2219 -21.3959 -34.5800 12.5372 7.1250 -0.0000 -0.0000 15.3066 -65.8874 -7.7985
0.2550 16.5814 1.2801 0.0656 5.5055 17.9437 0.0000 0.0000 0.0000 -15.2490 -11.4199 -39.3326 13.3021 18.8885 70.0613 0.0268 0.8529 -3.5319 0.0003 -0.1098 -0.3017 0.0000 0.0000 0.0000 23.0505 5.9059 -30.0814 -3.3501 -11.2414 33.0983 -1.0823 11.5914 -19.0996 -0.2011 2.8878 -7.9664 1.1396 -0.7842 -14.7375 2.7733 -1.2626 -6.0255 2.0540 -0.6090 1.9339 -0.3784 -0.8777 -5.6434 -3.7757 -0.7096 11.1302 -1.2608 -0.5612 4.7049 -0.0000 0.0000 0.0000 -90.6125 7.3050 24.2835 14.5585 -23.5275 -3.0475 -0.0000 0.0000 -3.8530 22.3456 -17.1854 -6.9249 -7.1250 0.0000 -0.0000 -3.6684 11.5199 2.8679 -0.0000 0.0000 0.0000 90.3359 -5.6454 1.8647 -11.7754 19.4669 -2.0268 0.0000 0.0000 1.5127 -20.9608 -34.5645 12.2616 7.1250 -0.0000 -0.0000 15.8123 -65.7481 -8.0111
0.2570 16.5716 1.4884 0.2314 5.3088 17.9823 0.0000 0.0000 0.0000 -15.4515 -11.6543 -40.5784 12.9540 18.7655 68.9826 0.0764 1.2111 -5.8164 0.0637 -1.6287 -4.4807 0.0000 0.0000 0.0000 23.1289 5.1137 -29.5346 -3.3664 -11.2659 33.1818 -1.1174 12.3718 -19.5373 -0.1198 2.2317 -6.1464 0.9787 -0.7272 -14.7350 2.6511 -1.1591 -6.1176 2.0340 -0.5563 1.8335 -0.3929 -0.8523 -5.4137 -3.6685 -0.6872 11.2102 -1.2186 -0.5441 4.6875 -0.0000 0.0000 0.0000 -90.8363 8.2252 23.1199 13.7115 -22.3208 -2.7176 -0.0000 0.0000 -2.6738 22.1397 -17.9497 -7.1469 -7.1250 0.0000 -0.0000 -3.8587 10.7375 3.0794 -0.0000 0.0000 0.0000 90.1217 -4.7988 5.2116 -12.6453 20.7653 -2.3260 0.0000 -0.0000 -1.2253 -20.4524 -33.4302 11.6104 7.1250 -0.0000 -0.0000 15.3678 -64.5187 -7.3442
0.2584 16.5642 1.6938 0.2732 4.8782 18.0337 0.0000 0.0000 0.0000 -15.5421 -11.7319 -41.8202 12.5414 18.6103 67.6950 0.0971 1.5243 -6.6555 0.0547 -1.5087 -4.1497 0.0000 0.0000 0.0000 23.2600 4.4841 -29.0592 -3.3975 -11.3123 33.3404 -1.1023 13.2874 -19.6412 -0.0508 1.4542 -3.9995 0.9368 -0.5564 -14.7310 2.5431 -0.9237 -6.1652 1.9826 -0.4396 1.7734 -0.5681 -0.8603 -5.2772 -3.4564 -0.7066 11.2298 -1.1143 -0.5493 4.6665 -0.0000 -0.0000 0.0000 -91.0177 8.9398 21.8942 12.8182 -21.0202 -2.3877 -0.0000 0.0000 -1.2740 21.6524 -18.3160 -7.1112 -7.1250 0.0000 -0.0000 -4.2043 10.4175 3.3842 -0.0000 -0.0000 0.0000 89.8059 -4.1373 8.9872 -13.7732 22.4095 -2.7410 0.0000 -0.0000 -4.5237 -20.5755 -33.2795 11.6392 7.1250 -0.0000 -0.0000 15.0921 -64.4074 -7.1705
0.2648 16.5627 1.9185 0.4307 4.2031 17.5551 0.0000 0.0000 0.0000 -15.9681 -11.4480 -42.2849 12.0303 18.4034 66.0847 0.1094 1.6590 -7.0895 0.0716 -1.7259 -4.7487 0.0000 0.0000 0.0000 23.1658 3.9354 -27.8344 -3.4113 -11.3328 33.4106 -1.0877 14.1398 -19.7613 -0.0173 0.8485 -2.3320 0.7635 -0.3181 -14.4726 2.3607 -0.5815 -5.9712 1.9438 -0.2697 1.8300 -0.5923 -0.8908 -5.2738 -3.3338 -0.7581 11.2707 -1.0715 -0.5698 4.6799 0.0000 0.0000 0.0000 -91.1650 9.6718 20.6785 12.0413 -19.8666 -2.1163 -0.0000 -0.0000 0.1066 20.7133 -17.1450 -6.3605 -7.1250 0.0000 -0.0000 -4.7461 11.7741 3.6908 0.0000 0.0000 0.0000 89.5354 -3.3390 12.2557 -14.9867 24.1276 -3.2205 0.0000 -0.0000 -7.3112 -20.8389 -33.9805 12.0103 7.1250 -0.0000 -0.0000 15.4082 -65.1545 -7.5910
0.2585 16.5493 2.1138 0.6234 4.5680 17.7727 0.0000 0.0000 0.0000 -15.9432 -12.2312 -43.5537 11.4734 18.1590 64.3095 0.1265 1.5246 -7.4613 0.0489 -1.4270 -3.9245 0.0000 0.0000 0.0000 23.2143 3.3490 -27.4785 -3.4230 -11.3502 33.4701 -1.1307 14.1339 -20.0744 -0.0215 0.9471 -2.6032 0.5472 -0.4341 -14.4450 2.2618 -0.6984 -6.0922 1.9446 -0.3252 1.6930 -0.6032 -0.9371 -5.2147 -3.1972 -0.8344 11.3314 -1.0274 -0.6009 4.6888 0.0000 0.0000 0.0000 -91.3273 10.5806 19.5458 11.4943 -19.0420 -1.9341 -0.0000 -0.0000 1.2595 20.0623 -15.8078 -5.6814 -7.1250 0.0000 -0.0000 -5.1094 13.2556 3.8173 0.0000 0.0000 0.0000 89.3604 -2.3194 14.5513 -16.0468 25.5841 -3.6662 0.0000 -0.0000 -9.1294 -20.6472 -34.0502 11.9139 7.1250 -0.0000 -0.0000 15.6991 -65.1677 -7.7423
0.2633 16.5493 2.3383 0.6476 4.0088 17.7942 0.0000 0.0000 0.0000 -16.1388 -12.1580 -44.3839 10.8190 17.8453 62.1922 0.1601 1.5715 -8.3057 0.0169 -0.8393 -2.3068 0.0000 0.0000 0.0000 23.2444 2.7493 -26.7148 -3.4124 -11.3345 33.4163 -1.1509 14.7981 -20.4069 -0.0437 1.3491 -3.7099 0.5152 -0.2419 -14.7224 2.1471 -0.4479 -5.8876 1.8816 -0.2028 2.0477 -0.6575 -0.9318 -5.3178 -3.0350 -0.8431 11.1781 -0.9617 -0.5983 4.6536 0.0000 0.0000 0.0000 -91.5321 10.9952 17.8624 10.8117 -17.9991 -1.7173 -0.0000 -0.0000 3.1039 19.6714 -15.1594 -5.3408 -7.1250 0.0000 -0.0000 -5.3442 13.9780 3.9125 0.0000 0.0000 0.0000 89.1117 -1.0855 16.7489 -17.1765 27.0899 -4.1674 0.0000 -0.0000 -10.8174 -20.3584 -34.4728 11.8615 7.1250 -0.0000 -0.0000 16.4388 -65.4897 -8.2382
0.2662 16.5463 2.5586 0.7491 3.1991 17.9277 0.0000 0.0000 0.0000 -16.4540 -11.9291 -45.2249 10.1084 17.4703 59.8500 0.1812 1.9008 -8.9733 0.0142 -0.7693 -2.1143 0.0000 0.0000 0.0000 23.0739 2.3851 -26.0486 -3.3972 -11.3118 33.3387 -1.1353 15.7359 -20.5812 -0.0401 1.2924 -3.5538 0.3256 -0.0056 -14.9831 2.0211 -0.1128 -5.8143 1.9125 -0.0362 2.2538 -0.6696 -0.9354 -5.2881 -2.9603 -0.8614 10.9673 -0.9320 -0.6016 4.5701 -0.0000 0.0000 0.0000 -91.7117 11.5073 15.7489 10.0595 -16.8326 -1.4921 -0.0000 -0.0000 5.6258 19.1357 -15.0174 -5.1375 -7.1250 0.0000 -0.0000 -5.7010 14.1830 4.1514 -0.0000 0.0000 0.0000 88.7957 0.0992 18.7223 -18.2118 28.4276 -4.6496 0.0000 -0.0000 -12.0212 -20.0888 -34.9841 11.8427 7.1250 -0.0000 -0.0000 17.2617 -65.8974 -8.8235
0.2654 16.5319 2.7558 0.6448 3.0665 18.1335 0.0000 0.0000 0.0000 -16.3353 -12.1036 -46.1426 9.3556 17.0312 57.3120 0.1896 2.2259 -9.3569 0.0164 -0.8260 -2.2700 0.0000 0.0000 0.0000 23.2701 1.9087 -25.4769 -3.3492 -11.2399 33.0934 -1.1002 16.3333 -20.5332 -0.0220 0.9578 -2.6327 0.4207 0.0781 -14.8858 1.9693 -0.0082 -6.0114 1.8205 0.0158 1.9915 -0.6253 -0.9683 -4.9198 -2.9301 -0.9248 10.7572 -0.9263 -0.6247 4.4176 -0.0000 0.0000 0.0000 -91.8031 12.4991 13.7868 9.3598 -15.7320 -1.2960 -0.0000 -0.0000 7.7260 19.0476 -16.1895 -5.4985 -7.1250 0.0000 -0.0000 -5.8065 12.9705 4.3782 -0.0000 0.0000 0.0000 88.4560 1.0856 20.6001 -19.1688 29.6278 -5.1140 0.0000 -0.0000 -13.1477 -19.8846 -34.9246 11.6987 7.1250 -0.0000 -0.0000 17.4429 -65.7829 -8.8726
0.2596 16.5264 2.9425 0.7223 3.2262 18.4887 0.0000 0.0000 0.0000 -16.3098 -12.5433 -47.1386 8.5475 16.5076 54.5118 0.2007 2.4612 -9.7403 0.0192 -0.8944 -2.4582 0.0000 0.0000 0.0000 23.3296 1.3822 -25.1032 -3.2933 -11.1554 32.8057 -1.0309 16.8688 -20.2407 -0.0023 0.3105 -0.8531 0.2916 0.0037 -14.8514 1.9081 -0.0827 -6.1685 1.8168 -0.0189 1.8102 -0.5351 -0.9524 -4.6770 -2.8953 -0.9256 10.5040 -0.9247 -0.6156 4.2765 0.0000 -0.0000 0.0000 -91.9406 13.3698 11.8626 8.8102 -14.8575 -1.1510 -0.0000 -0.0000 9.5039 19.1389 -16.9898 -5.7903 -7.1250 0.0000 -0.0000 -5.7817 12.1270 4.4614 0.0000 -0.0000 0.0000 88.0877 2.1453 22.5743 -20.2981 30.9998 -5.6841 0.0000 -0.0000 -14.5811 -19.6534 -34.5184 11.4409 7.1250 -0.0000 -0.0000 17.3121 -65.3341 -8.6254
0.2675 16.5284 3.1540 0.6404 2.5968 18.6249 0.0000 0.0000 0.0000 -16.3737 -12.4087 -47.6927 7.7024 15.8959 51.4834 0.2030 2.9964 -10.1607 0.0016 -0.2622 -0.7205 0.0000 0.0000 0.0000 23.2913 1.0149 -24.3187 -3.1956 -11.0052 32.2975 -0.8679 18.0959 -19.5908 -0.0100 -0.6454 1.7735 0.3480 0.2098 -14.9047 1.8420 0.1811 -6.1471 1.7586 0.1105 1.8536 -0.4672 -0.9574 -4.8164 -2.9737 -0.9282 10.4990 -0.9648 -0.6188 4.3024 -0.0000 -0.0000 0.0000 -92.2277 14.1539 9.7153 8.5191 -14.3907 -1.0775 -0.0000 -0.0000 11.9070 18.5891 -15.5960 -5.1668 -7.1250 0.0000 -0.0000 -6.0909 13.6375 4.5091 -0.0000 -0.0000 0.0000 87.7119 3.3225 24.2935 -21.4318 32.3289 -6.2793 0.0000 -0.0000 -15.8962 -19.7442 -34.2467 11.4193 7.1250 -0.0000 -0.0000 16.9440 -65.1025 -8.3465
0.2724 16.5170 3.3607 0.4547 1.9340 18.7322 0.0000 0.0000 0.0000 -16.3217 -12.1723 -48.0691 6.8361 15.1923 48.2515 0.2081 3.3851 -10.5492 0.0010 -0.2048 -0.5627 0.0000 0.0000 0.0000 23.3687 0.6920 -23.4407 -3.0800 -10.8235 31.6869 -0.7569 19.0125 -19.2272 -0.0112 -0.6830 1.8769 0.4605 0.4187 -14.7878 1.8241 0.4422 -6.1371 1.7169 0.2385 1.7955 -0.3434 -0.9234 -5.2119 -3.1423 -0.8665 10.6339 -1.0469 -0.5959 4.4316 0.0000 -0.0000 0.0000 -92.4992 14.9331 7.3584 8.2599 -13.9733 -1.0140 -0.0000 -0.0000 14.5907 17.9081 -14.2698 -4.5541 -7.1250 0.0000 -0.0000 -6.5124 15.0817 4.6240 0.0000 -0.0000 0.0000 87.3228 4.7023 25.8558 -22.4099 33.4372 -6.8103 0.0000 -0.0000 -16.8262 -20.4665 -35.6568 12.2740 7.1250 -0.0000 -0.0000 17.5092 -66.6401 -9.2511
0.2938 16.5130 3.5999 0.1078 0.9131 18.2289 0.0000 0.0000 0.0000 -16.3947 -11.4835 -47.5355 5.9566 14.3861 44.8071 0.2337 3.8107 -11.3489 0.0570 -1.5399 -4.2358 0.0000 0.0000 0.0000 23.4489 -0.1638 -21.8518 -2.9463 -10.6075 30.9675 -0.6141 20.4575 -18.9578 -0.0033 -0.3708 1.0187 0.8882 0.8239 -14.6756 1.7887 0.9120 -5.7742 1.5150 0.4644 2.1117 -0.3493 -0.8511 -5.3366 -3.1351 -0.7739 10.3940 -1.0365 -0.5486 4.3714 -0.0000 0.0000 0.0000 -92.6948 15.6513 5.2397 7.9152 -13.4154 -0.9324 -0.0000 -0.0000 16.7348 17.8290 -14.6845 -4.6610 -7.1250 0.0000 -0.0000 -6.5766 14.6596 4.7299 -0.0000 0.0000 0.0000 86.8289 6.2472 27.2565 -23.4352 34.5613 -7.3837 0.0000 -0.0000 -17.3010 -21.2342 -37.5944 13.3358 7.1250 -0.0000 -0.0000 18.8156 -68.6765 -10.8276
0.3015 16.5092 3.8192 0.1443 0.2836 17.9818 0.0000 0.0000 0.0000 -16.6301 -11.2832 -47.2804 5.0897 13.4842 41.2090 0.2183 4.4006 -11.5593 0.1368 -2.3839 -6.5679 0.0000 0.0000 0.0000 23.2449 -0.9464 -20.5733 -2.8143 -10.3882 30.2430 -0.5079 21.4561 -18.7761 -0.0022 -0.3014 0.8282 0.7552 1.0131 -14.5622 1.7475 1.1783 -5.5605 1.5902 0.5970 2.2688 -0.5175 -0.8596 -5.1569 -3.0578 -0.7929 9.9313 -0.9733 -0.5547 4.1685 0.0000 0.0000 0.0000 -92.9805 16.3070 2.7058 7.5392 -12.8033 -0.8471 -0.0000 -0.0000 19.2558 18.1016 -15.4834 -4.9872 -7.1250 0.0000 -0.0000 -6.4153 13.8050 4.7295 0.0000 0.0000 0.0000 86.3069 7.6180 28.3804 -24.5971 35.7893 -8.0531 0.0000 -0.0000 -17.7890 -21.5073 -35.7517 12.9657 7.1250 -0.0000 -0.0000 16.3526 -67.0365 -8.7735
